HIERARCHY
ROOT hip
{
  OFFSET 0 0 0
  CHANNELS 6 Xposition Yposition Zposition Zrotation Yrotation Xrotation
  JOINT abdomen
  {
    OFFSET 0 20.6881 -0.73152
    CHANNELS 3 Zrotation Xrotation Yrotation
    JOINT chest
    {
      OFFSET 0 11.7043 -0.48768
      CHANNELS 3 Zrotation Xrotation Yrotation
      JOINT neck
      {
        OFFSET 0 22.1894 -2.19456
        CHANNELS 3 Zrotation Xrotation Yrotation
        JOINT head
        {
          OFFSET -0.24384 7.07133 1.2192
          CHANNELS 3 Zrotation Xrotation Yrotation
          JOINT leftEye
          {
            OFFSET 4.14528 8.04674 8.04672
            CHANNELS 3 Zrotation Xrotation Yrotation
            End Site
            {
              OFFSET 1 0 0
            }
          }
          JOINT rightEye
          {
            OFFSET -3.6576 8.04674 8.04672
            CHANNELS 3 Zrotation Xrotation Yrotation
            End Site
            {
              OFFSET 1 0 0
            }
          }
        }
      }
      JOINT rCollar
      {
        OFFSET -2.68224 19.2634 -4.8768
        CHANNELS 3 Zrotation Xrotation Yrotation
        JOINT rShldr
        {
          OFFSET -8.77824 -1.95073 1.46304
          CHANNELS 3 Zrotation Xrotation Yrotation
          JOINT rForeArm
          {
            OFFSET -28.1742 -1.7115 0.48768
            CHANNELS 3 Zrotation Xrotation Yrotation
            JOINT rHand
            {
              OFFSET -22.5879 0.773209 7.07136
              CHANNELS 3 Zrotation Xrotation Yrotation
              JOINT rThumb1
              {
                OFFSET -1.2192 -0.487915 3.41376
                CHANNELS 3 Zrotation Xrotation Yrotation
                JOINT rThumb2
                {
                  OFFSET -3.37035 -0.52449 3.41376
                  CHANNELS 3 Zrotation Xrotation Yrotation
                  End Site
                  {
                    OFFSET -1.78271 -1.18214 1.43049
                  }
                }
              }
              JOINT rIndex1
              {
                OFFSET -7.75947 0.938293 5.60832
                CHANNELS 3 Zrotation Xrotation Yrotation
                JOINT rIndex2
                {
                  OFFSET -2.54057 -0.884171 1.56538
                  CHANNELS 3 Zrotation Xrotation Yrotation
                  End Site
                  {
                    OFFSET -1.62519 -0.234802 1.16502
                  }
                }
              }
              JOINT rMid1
              {
                OFFSET -8.24714 1.18213 3.41376
                CHANNELS 3 Zrotation Xrotation Yrotation
                JOINT rMid2
                {
                  OFFSET -3.10165 -0.590103 1.0647
                  CHANNELS 3 Zrotation Xrotation Yrotation
                  End Site
                  {
                    OFFSET -2.48547 -0.328903 0.83742
                  }
                }
              }
              JOINT rRing1
              {
                OFFSET -8.82822 0.546677 1.51678
                CHANNELS 3 Zrotation Xrotation Yrotation
                JOINT rRing2
                {
                  OFFSET -2.60934 -0.819778 -0.0198488
                  CHANNELS 3 Zrotation Xrotation Yrotation
                  End Site
                  {
                    OFFSET -2.33842 -0.294052 0.168128
                  }
                }
              }
              JOINT rPinky1
              {
                OFFSET -8.27202 -0.0477905 -0.4584
                CHANNELS 3 Zrotation Xrotation Yrotation
                JOINT rPinky2
                {
                  OFFSET -1.82734 -0.647385 -0.700984
                  CHANNELS 3 Zrotation Xrotation Yrotation
                  End Site
                  {
                    OFFSET -1.69225 -0.51767 -0.607171
                  }
                }
              }
            }
          }
        }
      }
      JOINT lCollar
      {
        OFFSET 2.68224 19.2634 -4.8768
        CHANNELS 3 Zrotation Xrotation Yrotation
        JOINT lShldr
        {
          OFFSET 8.77824 -1.95073 1.46304
          CHANNELS 3 Zrotation Xrotation Yrotation
          JOINT lForeArm
          {
            OFFSET 28.1742 -1.7115 0.48768
            CHANNELS 3 Zrotation Xrotation Yrotation
            JOINT lHand
            {
              OFFSET 22.5879 0.773209 7.07136
              CHANNELS 3 Zrotation Xrotation Yrotation
              JOINT lThumb1
              {
                OFFSET 1.2192 -0.487915 3.41376
                CHANNELS 3 Zrotation Xrotation Yrotation
                JOINT lThumb2
                {
                  OFFSET 3.37035 -0.52449 3.41376
                  CHANNELS 3 Zrotation Xrotation Yrotation
                  End Site
                  {
                    OFFSET 1.78271 -1.18214 1.43049
                  }
                }
              }
              JOINT lIndex1
              {
                OFFSET 7.75947 0.938293 5.60832
                CHANNELS 3 Zrotation Xrotation Yrotation
                JOINT lIndex2
                {
                  OFFSET 2.54057 -0.884171 1.56538
                  CHANNELS 3 Zrotation Xrotation Yrotation
                  End Site
                  {
                    OFFSET 1.62519 -0.234802 1.16502
                  }
                }
              }
              JOINT lMid1
              {
                OFFSET 8.24714 1.18213 3.41376
                CHANNELS 3 Zrotation Xrotation Yrotation
                JOINT lMid2
                {
                  OFFSET 3.10165 -0.590103 1.0647
                  CHANNELS 3 Zrotation Xrotation Yrotation
                  End Site
                  {
                    OFFSET 2.48547 -0.328903 0.83742
                  }
                }
              }
              JOINT lRing1
              {
                OFFSET 8.82822 0.546677 1.51678
                CHANNELS 3 Zrotation Xrotation Yrotation
                JOINT lRing2
                {
                  OFFSET 2.60934 -0.819778 -0.0198488
                  CHANNELS 3 Zrotation Xrotation Yrotation
                  End Site
                  {
                    OFFSET 2.33842 -0.294052 0.168128
                  }
                }
              }
              JOINT lPinky1
              {
                OFFSET 8.27202 -0.0477905 -0.4584
                CHANNELS 3 Zrotation Xrotation Yrotation
                JOINT lPinky2
                {
                  OFFSET 1.82734 -0.647385 -0.700984
                  CHANNELS 3 Zrotation Xrotation Yrotation
                  End Site
                  {
                    OFFSET 1.69225 -0.51767 -0.607171
                  }
                }
              }
            }
          }
        }
      }
    }
  }
  JOINT rButtock
  {
    OFFSET -8.77824 4.35084 1.2192
    CHANNELS 3 Zrotation Xrotation Yrotation
    JOINT rThigh
    {
      OFFSET 0 -1.70687 -2.19456
      CHANNELS 3 Zrotation Xrotation Yrotation
      JOINT rShin
      {
        OFFSET 0 -36.8199 0.73152
        CHANNELS 3 Zrotation Xrotation Yrotation
        JOINT rFoot
        {
          OFFSET 0.73152 -45.1104 -5.12064
          CHANNELS 3 Zrotation Xrotation Yrotation
          End Site
          {
            OFFSET -1.1221 -3.69964 12.103
          }
        }
      }
    }
  }
  JOINT lButtock
  {
    OFFSET 8.77824 4.35084 1.2192
    CHANNELS 3 Zrotation Xrotation Yrotation
    JOINT lThigh
    {
      OFFSET 0 -1.70687 -2.19456
      CHANNELS 3 Zrotation Xrotation Yrotation
      JOINT lShin
      {
        OFFSET 0 -36.8199 0.73152
        CHANNELS 3 Zrotation Xrotation Yrotation
        JOINT lFoot
        {
          OFFSET -0.73152 -45.1104 -5.12064
          CHANNELS 3 Zrotation Xrotation Yrotation
          End Site
          {
            OFFSET 1.1221 -3.69964 12.103
          }
        }
      }
    }
  }
}
MOTION
Frames:	4
Frame Time:	0.03333
-0.041310258090599884 36.148308314334336 -0.022918311226267675 -161.88699340820312 -65.6166000366211 162.74000549316406 0.19948160648345947 10.800699234008789 13.742599487304688 0.383917897939682 -13.235898971557617 3.8747200965881348 -0.1517709642648697 13.329300880432129 9.881608963012695 5.212869644165039 -19.46540069580078 20.163097381591797 -0.0 0.0 -0.0 -0.0 0.0 -0.0 -2.162777064645266e-13 -3.4604433034324256e-12 -8.269441988811854e-13 53.50539779663086 81.58090209960938 10.084698677062988 -26.403797149658203 -45.446998596191406 94.38399505615234 -47.54709243774414 -80.28321075439453 -55.159793853759766 2.3786859149055317e-09 4.204591341760988e-09 1.9144201779397463e-09 3.94705557127395e-09 7.379013844399651e-09 3.3768392526667412e-09 2.3786859149055317e-09 4.204591341760988e-09 1.9144201779397463e-09 7.7309088706970215 5.474880218505859 0.41731396317481995 2.3786859149055317e-09 4.204591341760988e-09 1.914433056526832e-09 2.9055399894714355 0.9651829600334167 0.10290198773145676 2.3786859149055317e-09 4.204591341760988e-09 1.914433056526832e-09 10.27859878540039 0.73180091381073 0.025912299752235413 2.3786859149055317e-09 4.204591341760988e-09 1.91443927377577e-09 2.2216696739196777 -0.7334870100021362 -0.2089199721813202 -2.162777064645266e-13 -3.4604433034324256e-12 -8.269441988811854e-13 -67.40238952636719 7.362069129943848 -34.955196380615234 28.43549919128418 -35.589595794677734 -76.30939483642578 0.4774108827114105 19.25459861755371 -2.8138797283172607 -1.1331806604175654e-09 1.1652661058292324e-09 2.9689204428251514e-09 -1.9254695615700257e-09 2.011293576131834e-09 5.149769499723789e-09 -1.1332060845248293e-09 1.1652788733940156e-09 2.9689586344971985e-09 -7.7309088706970215 5.474880218505859 -0.41731396317481995 -1.1331806604175654e-09 1.1652788733940156e-09 2.9689204428251514e-09 -2.9055399894714355 0.9651829600334167 -0.10290198773145676 -1.1331806604175654e-09 1.1652788733940156e-09 2.9689204428251514e-09 -10.27859878540039 0.73180091381073 -0.025912299752235413 -1.1331806604175654e-09 1.1652788733940156e-09 2.9689204428251514e-09 -2.2216696739196777 -0.7334870100021362 0.2089199721813202 -0.0 0.0 -0.0 -14.330801963806152 -36.7578010559082 -25.203100204467773 -10.297897338867188 85.16482543945312 11.742300033569336 -20.32419776916504 -24.735698699951172 -30.772497177124023 -0.0 0.0 -0.0 76.1614990234375 -41.27299880981445 71.56809997558594 2.878509759902954 73.35870361328125 -2.746450185775757 0.10124200582504272 3.4984800815582275 -3.893930435180664
-0.07712011948586354 36.082533592627115 -0.044117749319006104 -161.97898864746094 -65.62889099121094 162.8400115966797 0.2253129929304123 10.795899391174316 13.720799446105957 0.3779870271682739 -13.239700317382812 3.8720903396606445 -0.18889804184436798 13.305599212646484 9.910588264465332 5.18503999710083 -19.353300094604492 20.206998825073242 -0.0 0.0 -0.0 -0.0 0.0 -0.0 -1.0177774421860075e-13 -3.2059988344657064e-12 -5.979442201792251e-13 52.9822998046875 81.64221954345703 10.582998275756836 -26.41029930114746 -45.43379592895508 94.35639190673828 -47.42219161987305 -80.26850891113281 -55.033199310302734 1.088449330666208e-09 2.1027537489004544e-09 1.001728366922805e-09 1.7975857469210155e-09 3.6713267981269837e-09 1.7571800681182026e-09 1.0884620982309912e-09 2.1027537489004544e-09 1.0017411344875882e-09 7.7309088706970215 5.474880218505859 0.41731396317481995 1.0884620982309912e-09 2.1027537489004544e-09 1.0017411344875882e-09 2.9055399894714355 0.9651829600334167 0.10290198773145676 1.0884620982309912e-09 2.1027537489004544e-09 1.0017411344875882e-09 10.27859878540039 0.73180091381073 0.025912299752235413 1.088449330666208e-09 2.1027537489004544e-09 1.0017474627588285e-09 2.2216696739196777 -0.7334870100021362 -0.2089199721813202 -1.0177774421860075e-13 -3.2059988344657064e-12 -5.979442201792251e-13 -67.43440246582031 7.269219875335693 -35.00230026245117 28.436796188354492 -35.58190155029297 -76.2886962890625 0.47418996691703796 19.193599700927734 -2.8042397499084473 -6.140887243155646e-10 8.53342785323008e-10 1.9683878971221702e-09 -1.0384765269932927e-09 1.4714517382330428e-09 3.409840632073724e-09 -6.141014918803478e-10 8.53342785323008e-10 1.9684196495006745e-09 -7.7309088706970215 5.474880218505859 -0.41731396317481995 -6.140887243155646e-10 8.5335549737664e-10 1.9683878971221702e-09 -2.9055399894714355 0.9651829600334167 -0.10290198773145676 -6.140887243155646e-10 8.5335549737664e-10 1.9683878971221702e-09 -10.27859878540039 0.73180091381073 -0.025912299752235413 -6.140887243155646e-10 8.5335549737664e-10 1.9683878971221702e-09 -2.2216696739196777 -0.7334870100021362 0.2089199721813202 -0.0 0.0 -0.0 -14.271798133850098 -36.816497802734375 -25.123498916625977 -10.715299606323242 85.34212493896484 12.173600196838379 -20.515697479248047 -24.735998153686523 -31.020299911499023 -0.0 0.0 -0.0 76.3750991821289 -41.252296447753906 71.73389434814453 2.9282493591308594 73.57019805908203 -2.7953498363494873 0.08553029596805573 3.3991596698760986 -3.972059488296509
-0.10966412326144295 36.0223152298097 -0.06187944114468605 -161.97299194335938 -65.69969940185547 162.8699493408203 0.3039569854736328 10.807299613952637 13.690299034118652 0.3650829493999481 -13.238199234008789 3.8651394844055176 -0.2644372582435608 13.283099174499512 9.952229499816895 5.169559478759766 -19.30699920654297 20.287097930908203 -0.0 0.0 -0.0 -0.0 0.0 -0.0 8.905552619127566e-14 -3.676720820161572e-12 -2.9897211008961255e-13 52.331398010253906 81.68798828125 11.144397735595703 -26.411497116088867 -45.43279266357422 94.35379028320312 -47.262996673583984 -80.24959564208984 -54.87159729003906 -2.132243687169577e-11 -5.637342259667832e-10 -4.943090381459569e-10 -6.526497658282393e-12 -9.607564743774333e-10 -8.380633964577555e-10 -2.1309714409722957e-11 -5.637342259667832e-10 -4.943090381459569e-10 7.7309088706970215 5.474880218505859 0.41731396317481995 -2.132243687169577e-11 -5.637342259667832e-10 -4.943027098747166e-10 2.9055399894714355 0.9651829600334167 0.10290198773145676 -2.1309714409722957e-11 -5.637342259667832e-10 -4.943027098747166e-10 10.27859878540039 0.73180091381073 0.025912299752235413 -2.132243687169577e-11 -5.637342259667832e-10 -4.942899978210846e-10 2.2216696739196777 -0.7334870100021362 -0.2089199721813202 8.905552619127566e-14 -3.676720820161572e-12 -2.9897211008961255e-13 -67.5280990600586 7.179579257965088 -35.09559631347656 28.43779945373535 -35.578800201416016 -76.27809143066406 0.4589499533176422 18.897098541259766 -2.757550001144409 2.7368035615538133e-10 3.569091133748259e-10 6.71256050743807e-10 4.816886334246817e-10 6.117351070145105e-10 1.1510427055938521e-09 2.7368035615538133e-10 3.569091133748259e-10 6.71268762797439e-10 -7.7309088706970215 5.474880218505859 -0.41731396317481995 2.7368035615538133e-10 3.569091133748259e-10 6.71256050743807e-10 -2.9055399894714355 0.9651829600334167 -0.10290198773145676 2.736676441017494e-10 3.569091133748259e-10 6.71256050743807e-10 -10.27859878540039 0.73180091381073 -0.025912299752235413 2.7368035615538133e-10 3.569091133748259e-10 6.712496669614154e-10 -2.2216696739196777 -0.7334870100021362 0.2089199721813202 -0.0 0.0 -0.0 -14.164199829101562 -36.90039825439453 -25.02199935913086 -11.190699577331543 85.52962493896484 12.665400505065918 -20.731298446655273 -24.676000595092773 -31.3346004486084 -0.0 0.0 -0.0 76.65159606933594 -41.258602142333984 71.9585952758789 2.979769706726074 73.78450012207031 -2.8461596965789795 0.07502951472997665 3.399279832839966 -4.09522008895874
-0.14283837874062133 35.95848711201593 -0.08078704894856104 -161.9290008544922 -65.75949096679688 162.86000061035156 0.35422682762145996 10.8287992477417 13.68179988861084 0.3398660719394684 -13.233200073242188 3.860290050506592 -0.2728451192378998 13.264999389648438 9.968469619750977 5.109649181365967 -19.28980255126953 20.308696746826172 -0.0 0.0 -0.0 -0.0 0.0 -0.0 7.633330816395056e-14 -3.778498781220607e-12 -3.2441654614426274e-13 51.882293701171875 81.73900604248047 11.537299156188965 -26.408397674560547 -45.42919921875 94.34939575195312 -47.238895416259766 -80.24669647216797 -54.847198486328125 -4.2619430207224696e-10 -8.428469588928067e-10 -4.6530876374184515e-10 -7.006507041218413e-10 -1.484237510673836e-09 -8.132423623408158e-10 -4.2619430207224696e-10 -8.428469588928067e-10 -4.6531511976866113e-10 7.7309088706970215 5.474880218505859 0.41731396317481995 -4.2619430207224696e-10 -8.428596709464387e-10 -4.653024077150292e-10 2.9055399894714355 0.9651829600334167 0.10290198773145676 -4.26181590018615e-10 -8.428469588928067e-10 -4.6530876374184515e-10 10.27859878540039 0.73180091381073 0.025912299752235413 -4.262070141258789e-10 -8.428469588928067e-10 -4.653024077150292e-10 2.2216696739196777 -0.7334870100021362 -0.2089199721813202 7.633330816395056e-14 -3.778498781220607e-12 -3.2441654614426274e-13 -67.57819366455078 7.120849609375 -35.20280075073242 28.436595916748047 -35.59320068359375 -76.30999755859375 0.4500409662723541 18.719697952270508 -2.729710102081299 2.1688836837618908e-10 3.7437669631046333e-10 5.824676851950983e-10 3.8287514825263713e-10 6.420267095741394e-10 9.976063308769767e-10 2.1690109430760884e-10 3.743894361196709e-10 5.824740134663386e-10 -7.7309088706970215 5.474880218505859 -0.41731396317481995 2.1688836837618908e-10 3.743894361196709e-10 5.824676851950983e-10 -2.9055399894714355 0.9651829600334167 -0.10290198773145676 2.1688836837618908e-10 3.743894361196709e-10 5.824676851950983e-10 -10.27859878540039 0.73180091381073 -0.025912299752235413 2.1688836837618908e-10 3.743894361196709e-10 5.824613014127067e-10 -2.2216696739196777 -0.7334870100021362 0.2089199721813202 -0.0 0.0 -0.0 -14.139800071716309 -36.95240020751953 -25.0049991607666 -11.704299926757812 85.71480560302734 13.19420051574707 -20.906599044799805 -24.724401473999023 -31.52899932861328 -0.0 0.0 -0.0 76.90899658203125 -41.288700103759766 72.16929626464844 3.0309901237487793 73.99188995361328 -2.8971097469329834 0.059973180294036865 3.44953989982605 -4.296579837799072
